<svg xmlns="http://www.w3.org/2000/svg" version="1.0" width="866.000000pt" height="650.000000pt" viewBox="0 0 866.000000 650.000000" preserveAspectRatio="xMidYMid meet">
<metadata fill="#00A8C6">
Created by potrace 1.16, written by Peter Selinger 2001-2019
</metadata>
<g transform="translate(0.000000,650.000000) scale(0.100000,-0.100000)" fill="#00A8C6" stroke="none">
<path d="M1390 3250 l0 -1000 2945 0 2945 0 -2 998 -3 997 -2942 3 -2943 2 0 -1000z m5760 0 l0 -880 -2820 0 -2820 0 0 880 0 880 2820 0 2820 0 0 -880z" fill="#00A8C6"/>
<path d="M3699 3497 c-86 -45 -113 -160 -52 -221 14 -14 50 -34 82 -46 110 -39 132 -60 116 -106 -15 -40 -60 -49 -129 -26 l-56 19 -26 -40 -27 -41 23 -18 c74 -60 252 -40 305 34 45 65 38 157 -15 202 -17 14 -57 33 -90 42 -102 28 -130 77 -63 113 30 15 62 14 97 -4 16 -9 30 -14 31 -13 1 2 14 19 28 39 15 20 27 41 27 46 0 19 -79 43 -144 43 -46 0 -75 -6 -107 -23z" fill="#00A8C6"/>
<path d="M5176 3504 c-100 -36 -157 -115 -164 -228 -5 -85 8 -139 48 -194 47 -65 108 -95 205 -100 100 -5 164 19 224 83 66 72 86 171 55 276 -20 67 -97 148 -160 167 -54 16 -159 14 -208 -4z m184 -112 c40 -21 80 -90 80 -137 0 -87 -43 -145 -122 -166 -42 -12 -53 -11 -94 7 -70 29 -89 60 -89 149 0 59 4 79 21 102 44 60 136 80 204 45z" fill="#00A8C6"/>
<path d="M2460 3250 l0 -260 180 0 180 0 0 55 0 55 -125 0 -125 0 0 50 0 50 113 0 113 0 3 50 2 49 -113 3 -113 3 -3 48 -3 47 125 0 126 0 0 55 0 55 -180 0 -180 0 0 -260z" fill="#00A8C6"/>
<path d="M3060 3251 l0 -261 55 0 55 0 0 99 0 98 80 6 c136 9 194 54 194 150 0 68 -27 116 -79 142 -32 15 -67 20 -172 23 l-133 4 0 -261z m238 143 c15 -10 22 -25 22 -49 0 -43 -20 -55 -94 -55 l-56 0 0 60 0 60 53 0 c31 0 61 -6 75 -16z" fill="#00A8C6"/>
<path d="M4196 3501 c-9 -13 -5 -486 3 -500 5 -8 26 -11 57 -9 l49 3 3 258 2 257 -54 0 c-30 0 -57 -4 -60 -9z" fill="#00A8C6"/>
<path d="M4547 3504 c-4 -4 -7 -121 -7 -261 l0 -253 166 0 165 0 -3 53 -3 52 -102 3 -103 3 -2 202 -3 202 -50 3 c-28 2 -54 0 -58 -4z" fill="#00A8C6"/>
<path d="M5740 3250 l0 -260 55 0 55 0 0 178 0 177 105 -177 106 -178 74 0 75 0 -2 258 -3 257 -52 3 -53 3 -2 -178 -3 -178 -105 177 -105 177 -72 1 -73 0 0 -260z" fill="#00A8C6"/>
</g>
</svg>